<?xml version="1.0" encoding="utf-8"?><svg width="120" height="120" viewBox="0 0 120 120" fill="none" xmlns="http://www.w3.org/2000/svg">
<circle cx="60" cy="60" r="60" fill="#147DFA"/>
<path d="M77.0297 42.5893C73.2659 37.32 68.2117 34.6854 61.8671 34.6854C59.2863 34.6854 56.7592 35.3306 54.2858 36.621C51.8125 37.9115 50.5758 40.0084 50.5758 42.9119C50.5758 45.2777 51.5974 46.9982 53.6406 48.0736C55.6838 49.149 58.2647 50.063 61.3832 50.8158C64.5017 51.5685 67.8354 52.375 71.384 53.2353C75.0403 53.9881 78.4277 55.2247 81.5462 56.9453C84.6647 58.5584 87.2456 60.8166 89.2888 63.7201C91.332 66.6236 92.3536 70.6024 92.3536 75.6566C92.3536 80.2806 91.332 84.2057 89.2888 87.4318C87.3531 90.5503 84.7723 93.0774 81.5462 95.013C78.4277 96.9487 74.879 98.3467 70.9001 99.2069C66.9213 100.067 62.9425 100.497 58.9636 100.497C52.9416 100.497 47.4035 99.6371 42.3493 97.9165C37.2951 96.1959 32.7786 93.0774 28.7998 88.5609L41.7041 76.4631C44.1774 79.259 46.8121 81.5711 49.608 83.3992C52.5115 85.1197 56.0064 85.98 60.0928 85.98C61.4907 85.98 62.9425 85.8187 64.448 85.4961C65.9535 85.1735 67.3515 84.6358 68.6419 83.8831C69.9323 83.1303 70.9539 82.2163 71.7067 81.1409C72.5669 79.958 72.9971 78.6138 72.9971 77.1083C72.9971 74.4199 71.9755 72.4305 69.9323 71.1401C67.8891 69.8496 65.3083 68.828 62.1897 68.0753C59.0712 67.215 55.6838 66.4622 52.0276 65.817C48.4789 65.0643 45.1453 63.9352 42.0267 62.4297C38.9082 60.8166 36.3273 58.6121 34.2841 55.8162C32.241 53.0202 31.2194 49.149 31.2194 44.2023C31.2194 39.9009 32.0797 36.1909 33.8002 33.0723C35.6283 29.8463 37.9941 27.2116 40.8976 25.1684C43.8011 23.1253 47.1347 21.6198 50.8984 20.6519C54.6622 19.6841 58.4797 19.2002 62.351 19.2002C67.5128 19.2002 72.6207 20.1142 77.6749 21.9424C82.7291 23.6629 86.8155 26.6739 89.934 30.9754L77.0297 42.5893Z" fill="white"/>
</svg>
